inDegrees=yes
name=ik_lifting_orientations
DataType=double
version=3
OpenSimVersion=4.5-2024-01-10-34fd6af
endheader
time	pelvis_tilt	pelvis_list	pelvis_rotation	pelvis_tx	pelvis_ty	pelvis_tz	hip_flexion_r	hip_adduction_r	hip_rotation_r	knee_angle_r	knee_angle_r_beta	ankle_angle_r	subtalar_angle_r	mtp_angle_r	hip_flexion_l	hip_adduction_l	hip_rotation_l	knee_angle_l	knee_angle_l_beta	ankle_angle_l	subtalar_angle_l	mtp_angle_l	lumbar_extension	lumbar_bending	lumbar_rotation	arm_flex_r	arm_add_r	arm_rot_r	elbow_flex_r	pro_sup_r	wrist_flex_r	wrist_dev_r	arm_flex_l	arm_add_l	arm_rot_l	elbow_flex_l	pro_sup_l	wrist_flex_l	wrist_dev_l
0.02	0.004860195833638078	-0.00193602241801598	-90.07488686319979	0	0.9399999998679526	0	45.51897905751559	-10.43221993877164	0	59.78725070870079	1.043484375582142	-5.206757860126518	0	0	45.51897905751559	-10.43221993877164	0	59.78725070870079	1.043484375582142	-5.206757860126518	0	0	-0.003509944057633182	-0.005386071000953206	-0.0002481218501159704	-0.2135309510884587	-0.0499288466870908	-0.003318712878061887	0.4495370872867603	2.140320964767574	0	0	0	-11.88702481465578	0	87.9001964871734	2.140320964767574	0	0
0.03	-0.005656539166754641	-0.003008728198681573	-90.07114322972285	0	0.9399999998679526	0	45.50654675797606	-10.40033997862764	0	59.79128493080543	1.043554786040625	-5.187836506158407	0	0	45.50654675797606	-10.40033997862764	0	59.79128493080543	1.043554786040625	-5.187836506158407	0	0	-0.002421899676497611	0.006470733121528024	-0.0587031078474012	-0.2363187000763641	-0.01539374509083065	0.1087096531941964	0.5159884505226273	2.104068273833604	0	0	0	-11.9261910652608	0	87.93575934101933	2.104068273833604	0	0
0.04	-0.004272336136409257	0.004324813560095149	-90.08182069689873	0	0.9399999998679526	0	45.50647199000593	-10.40013321695347	0	59.79130910005519	1.043555207873611	-5.187709935665388	0	0	45.50647199000593	-10.40013321695347	0	59.79130910005519	1.043555207873611	-5.187709935665388	0	0	-0.05359161019890967	0.01259842639609778	-0.0528715161704543	-0.1941037629521442	0.01383350080855658	0.1759786920716927	0.4810457170440213	2.103852181320944	0	0	0	-11.92642333350294	0	87.93597132132722	2.103852181320944	0	0
0.05	-0.005605002483937443	-0.003380092885003646	-90.0666103027586	0	0.9399999998679526	0	45.49368302844201	-10.36927065297512	0	59.79548373156728	1.043628068938554	-5.169797766209999	0	0	45.49368302844201	-10.36927065297512	0	59.79548373156728	1.043628068938554	-5.169797766209999	0	0	-0.03717182534760669	0.0106764271208282	-0.1197379105093838	-0.2397005543833104	0.05933570771400573	0.2512834435009832	0.5074664565334908	2.066248307983288	0	0	0	-11.96725860960053	0	87.97285968501977	2.066248307983288	0	0
0.06	-0.0001035993947219093	0.002559282631683282	-90.07417103821935	0	0.9399999998679526	0	45.48107192584039	-10.34070266845287	0	59.79962648643482	1.043700373651096	-5.153587659650023	0	0	45.48107192584039	-10.34070266845287	0	59.79962648643482	1.043700373651096	-5.153587659650023	0	0	0.0008935290780035386	0.004565488179381633	-0.1794526897966549	-0.3160210806993622	0.08010799287935139	0.3165792745808023	0.4741677034709382	2.028837371741259	0	0	0	-12.00810838507934	0	88.00955882236553	2.028837371741259	0	0
0.07000000000000001	0.01472851590549203	-0.009443120153370354	-90.05357331240657	0	0.9399999998679526	0	45.47156143296365	-10.3205037138271	0	59.80277140851059	1.043755262896037	-5.14237954945314	0	0	45.47156143296365	-10.3205037138271	0	59.80277140851059	1.043755262896037	-5.14237954945314	0	0	-0.007487600343191104	0.00732818160571584	-0.2545017887640393	-0.3281592382241153	0.06292378263000208	0.397476816734483	0.4745137664630211	2.000362713725861	0	0	0	-12.03937981781887	0	88.03749173633554	2.000362713725861	0	0
0.08	0.001126914078954715	0.002905807287881381	-90.04295461654439	0	0.9399999998679526	0	45.46346126673392	-10.30385394075561	0	59.80545873702305	1.043802165626662	-5.133249597835301	0	0	45.46346126673392	-10.30385394075561	0	59.80545873702305	1.043802165626662	-5.133249597835301	0	0	0.006630314243225591	0.01254473184345011	-0.2796944103272118	-0.3498467431911768	0.1066731870808643	0.401794752633414	0.4331655978479665	1.975999275701863	0	0	0	-12.06621242275882	0	88.06139166001205	1.975999275701863	0	0
0.09	0.01386953824955576	0.02382897295862382	-90.00620592889368	0	0.9399999998679526	0	45.44712134662034	-10.27270631489514	0	59.8109205542593	1.043897492320577	-5.116638542548141	0	0	45.44712134662034	-10.27270631489514	0	59.8109205542593	1.043897492320577	-5.116638542548141	0	0	0.1036417941265385	0.01324471595313972	-0.3045125874960698	-0.7076668246496284	0.01930898009817999	0.3648908218814095	0.9858236635427455	1.926339669071401	0	0	0	-12.12125821381107	0	88.11010654824989	1.926339669071401	0	0
0.1	-0.009343766869479441	0.04824895251355171	-90.07298796304586	0	0.9399999998679526	0	45.4402281768768	-10.25981462428716	0	59.81323017511828	1.043937802809038	-5.109797110593212	0	0	45.4402281768768	-10.25981462428716	0	59.81323017511828	1.043937802809038	-5.109797110593212	0	0	0.1098896937841907	0.01327585241539463	-0.1781727671594331	-0.4222979146967893	0.1224536034353915	0.3174849266636036	0.3946116807570456	1.905322429739502	0	0	0	-12.14460318446872	0	88.1307239632502	1.905322429739502	0	0
0.11	-0.006141173992201517	0.04811857503398455	-89.95724507480089	0	0.9399999998679526	0	45.44017649859167	-10.25970853221069	0	59.8132474566382	1.043938104428461	-5.109738680299356	0	0	45.44017649859167	-10.25970853221069	0	59.8132474566382	1.043938104428461	-5.109738680299356	0	0	0.1255105359157042	0.01377788397782464	-0.26742961093954	-0.4614102217839324	0.1272339112217282	0.3252010785443596	0.3512324670895609	1.905166540164758	0	0	0	-12.14477532791246	0	88.13087688704742	1.905166540164758	0	0
0.12	-0.01030302068886844	0.09463035660894004	-89.95204859886717	0	0.9399999998679526	0	45.44012590020961	-10.25960452799268	0	59.8132643520246	1.043938399308582	-5.109681394798942	0	0	45.44012590020961	-10.25960452799268	0	59.8132643520246	1.043938399308582	-5.109681394798942	0	0	0.2211421451983062	0.01115219174025654	-0.290526918963798	-0.4673968198167078	0.1029651082450785	0.3820008318272443	0.3151853816980145	1.905013988433244	0	0	0	-12.14494370524028	0	88.13102653649686	1.905013988433244	0	0
